<svg width="54" height="47" viewBox="0 0 54 47" fill="none" xmlns="http://www.w3.org/2000/svg">
<style>.fill{fill:rgba(52,63,82,.05)}</style>
<path d="M9 23.4C5.66667 22.8667 3.33333 21.8 2 20.2C0.800001 18.6 0.2 15.9333 0.2 12.2C0.2 8.46666 1.2 5.66666 3.2 3.8C5.2 1.79999 8 0.799988 11.6 0.799988C15.0667 0.799988 17.8667 1.86666 20 3.99999C22.1333 5.99999 23.2 8.79999 23.2 12.4C23.2 16.4 22.6667 19.8667 21.6 22.8C20.5333 25.7333 18.5333 29.6667 15.6 34.6L7.6 46.4L1.2 41L9 23.4ZM39 23.4C35.6667 22.8667 33.3333 21.8 32 20.2C30.8 18.6 30.2 15.9333 30.2 12.2C30.2 8.46666 31.2 5.66666 33.2 3.8C35.2 1.79999 38 0.799988 41.6 0.799988C45.0667 0.799988 47.8667 1.86666 50 3.99999C52.1333 5.99999 53.2 8.79999 53.2 12.4C53.2 16.5333 52.6667 20.0667 51.6 23C50.5333 25.9333 48.4667 29.8 45.4 34.6L37.6 46.4L31.2 41L39 23.4Z" class="fill"/>
</svg>
